{
	"asset":{
		"generator":"Khronos glTF Blender I/O v3.5.30",
		"version":"2.0"
	},
	"scene":0,
	"scenes":[
		{
			"extras":{
				"aad_props":{},
				"s_output":"exporting...",
				"b_export":0,
				"export_path":"/Users/gregoryvershbow/Documents/a-frame/1/",
				"b_settings":1,
				"b_show_env_sky":1,
				"s_cubemap_path":"/Users/gregoryvershbow/Downloads/00c",
				"b_renderer":1,
				"b_physicallyCorrectLights":0,
				"b_use_default_lights":0,
				"rtm_props":{},
				"b_cubemap":1,
				"b_camera_cube":0,
				"b_cast_shadows":1,
				"b_cubemap_background":1
			},
			"name":"Scene",
			"nodes":[
				0
			]
		}
	],
	"nodes":[
		{
			"extras":{
				"conform_object":{}
			},
			"mesh":0,
			"name":"Cube"
		}
	],
	"materials":[
		{
			"doubleSided":true,
			"name":"Material",
			"pbrMetallicRoughness":{
				"baseColorFactor":[
					0.8000000715255737,
					0.5837314128875732,
					0.19001266360282898,
					1
				],
				"metallicFactor":0,
				"roughnessFactor":0.5
			}
		}
	],
	"meshes":[
		{
			"name":"Cube",
			"primitives":[
				{
					"attributes":{
						"POSITION":0,
						"TEXCOORD_0":1,
						"NORMAL":2
					},
					"indices":3,
					"material":0
				}
			]
		}
	],
	"accessors":[
		{
			"bufferView":0,
			"componentType":5126,
			"count":814,
			"max":[
				1,
				1.0131440162658691,
				1
			],
			"min":[
				-1,
				-0.9868559241294861,
				-1
			],
			"type":"VEC3"
		},
		{
			"bufferView":1,
			"componentType":5126,
			"count":814,
			"type":"VEC2"
		},
		{
			"bufferView":2,
			"componentType":5126,
			"count":814,
			"type":"VEC3"
		},
		{
			"bufferView":3,
			"componentType":5123,
			"count":3624,
			"type":"SCALAR"
		}
	],
	"bufferViews":[
		{
			"buffer":0,
			"byteLength":9768,
			"byteOffset":0,
			"target":34962
		},
		{
			"buffer":0,
			"byteLength":6512,
			"byteOffset":9768,
			"target":34962
		},
		{
			"buffer":0,
			"byteLength":9768,
			"byteOffset":16280,
			"target":34962
		},
		{
			"buffer":0,
			"byteLength":7248,
			"byteOffset":26048,
			"target":34963
		}
	],
	"buffers":[
		{
			"byteLength":33296,
			"uri":"data:application/octet-stream;base64,"
		}
	]
}
